<svg xmlns="http://www.w3.org/2000/svg" viewBox="0 0 64 64" width="64" height="64">
  <!-- Stitched heart shape -->
  <path d="M32 52 C32 52, 8 36, 8 22 C8 14, 14 8, 22 8 C26 8, 30 11, 32 14 C34 11, 38 8, 42 8 C50 8, 56 14, 56 22 C56 36, 32 52, 32 52Z" fill="#b13e54"/>
  <!-- Cross-stitch marks -->
  <g stroke="#faf3ee" stroke-width="2" stroke-linecap="round" fill="none">
    <line x1="21" y1="18" x2="25" y2="22"/>
    <line x1="25" y1="18" x2="21" y2="22"/>
    <line x1="30" y1="22" x2="34" y2="26"/>
    <line x1="34" y1="22" x2="30" y2="26"/>
    <line x1="39" y1="18" x2="43" y2="22"/>
    <line x1="43" y1="18" x2="39" y2="22"/>
    <line x1="24" y1="29" x2="28" y2="33"/>
    <line x1="28" y1="29" x2="24" y2="33"/>
    <line x1="36" y1="29" x2="40" y2="33"/>
    <line x1="40" y1="29" x2="36" y2="33"/>
    <line x1="30" y1="36" x2="34" y2="40"/>
    <line x1="34" y1="36" x2="30" y2="40"/>
  </g>
</svg>
