<?xml version="1.0" encoding="UTF-8"?>
<svg xmlns="http://www.w3.org/2000/svg" viewBox="0 0 1200 630" width="1200" height="630">
  <!-- Scrappy Dolls — share image / OG logo card. 1200×630 (FB/Twitter). -->
  <defs>
    <style>
      .paper { fill: #faf3ee; }
      .rose  { fill: #b13e54; }
      .ink   { fill: #1a1318; }
      .soft  { fill: #5a4a52; }
      .stitch{ stroke: #faf3ee; stroke-width: 4; stroke-linecap: round; fill: none; }
      .rule  { stroke: #b13e54; stroke-width: 2; opacity: 0.45; }
      .brand-name { font-family: "Fraunces", "Iowan Old Style", "Palatino Linotype", Georgia, serif; font-weight: 600; }
      .brand-italic { font-family: "Fraunces", "Iowan Old Style", "Palatino Linotype", Georgia, serif; font-weight: 400; font-style: italic; }
      .tagline { font-family: "Fraunces", Georgia, serif; font-weight: 400; font-style: italic; }
      .url { font-family: "Inter", -apple-system, "Segoe UI", sans-serif; font-weight: 500; letter-spacing: 0.18em; text-transform: uppercase; }
    </style>
  </defs>

  <!-- Paper background -->
  <rect class="paper" width="1200" height="630"/>

  <!-- Decorative stitched-rule frame -->
  <rect x="40" y="40" width="1120" height="520" fill="none" stroke="#b13e54" stroke-width="2.5" stroke-dasharray="9 6" opacity="0.7" rx="14"/>

  <!-- Stitched heart icon, scaled up (same path as favicon.svg) -->
  <g transform="translate(540, 80) scale(2.5)">
    <path d="M32 52 C32 52, 8 36, 8 22 C8 14, 14 8, 22 8 C26 8, 30 11, 32 14 C34 11, 38 8, 42 8 C50 8, 56 14, 56 22 C56 36, 32 52, 32 52Z" class="rose"/>
    <g class="stitch">
      <line x1="21" y1="18" x2="25" y2="22"/>
      <line x1="25" y1="18" x2="21" y2="22"/>
      <line x1="30" y1="22" x2="34" y2="26"/>
      <line x1="34" y1="22" x2="30" y2="26"/>
      <line x1="39" y1="18" x2="43" y2="22"/>
      <line x1="43" y1="18" x2="39" y2="22"/>
      <line x1="24" y1="29" x2="28" y2="33"/>
      <line x1="28" y1="29" x2="24" y2="33"/>
      <line x1="36" y1="29" x2="40" y2="33"/>
      <line x1="40" y1="29" x2="36" y2="33"/>
      <line x1="30" y1="36" x2="34" y2="40"/>
      <line x1="34" y1="36" x2="30" y2="40"/>
    </g>
  </g>

  <!-- Wordmark: scrappy + italic dolls -->
  <g text-anchor="middle">
    <text x="600" y="370" class="brand-name ink" font-size="116" letter-spacing="-3">
      scrappy<tspan class="brand-italic rose">dolls</tspan>
    </text>

    <!-- Tagline -->
    <text x="600" y="430" class="tagline soft" font-size="32">
      Handmade by Kanda Kay
    </text>

    <!-- Divider dot -->
    <circle cx="600" cy="475" r="3" class="rose"/>

    <!-- URL -->
    <text x="600" y="515" class="url soft" font-size="20">
      scrappydolls.com
    </text>
  </g>
</svg>
